<svg version="1.1" id="Layer_1" xmlns="http://www.w3.org/2000/svg" xmlns:xlink="http://www.w3.org/1999/xlink" x="0px" y="0px"
	 width="100%" viewBox="0 0 1553 1653" enable-background="new 0 0 1553 1653" xml:space="preserve">
<path fill="#06051C" opacity="1.000000" stroke="none" 
	d="
M791.000000,1654.000000 
	C527.333374,1654.000000 264.166748,1654.000000 1.000106,1654.000000 
	C1.000071,1103.000122 1.000071,552.000305 1.000035,1.000328 
	C518.666443,1.000219 1036.332886,1.000219 1553.999512,1.000109 
	C1553.999634,551.999695 1553.999634,1102.999390 1553.999756,1653.999512 
	C1299.833374,1654.000000 1045.666626,1654.000000 791.000000,1654.000000 
M776.576721,848.076538 
	C771.555725,853.861938 766.265747,859.437561 761.561646,865.470093 
	C744.077332,887.892029 729.780457,912.342407 717.130798,937.714661 
	C671.684143,1028.870239 641.567383,1124.995728 625.093079,1225.411255 
	C619.256592,1260.986328 615.891479,1296.804688 618.768188,1332.937866 
	C620.468750,1354.297607 625.209167,1374.578613 637.800110,1392.594238 
	C645.475159,1403.576050 658.239990,1405.061157 666.320679,1394.494873 
	C671.710327,1387.447632 675.333618,1379.317871 675.863770,1370.226196 
	C676.319397,1362.412354 676.278259,1354.566284 676.847046,1346.763062 
	C677.664978,1335.542114 679.452698,1324.477295 683.373962,1313.533325 
	C685.070312,1315.364380 686.158325,1317.482056 687.752747,1317.980591 
	C689.194336,1318.431274 692.482910,1317.449219 692.724365,1316.519287 
	C694.044495,1311.434326 692.595886,1306.593506 689.509277,1302.432373 
	C686.605225,1298.517212 682.239685,1299.896851 678.909302,1301.079712 
	C676.231934,1302.030762 673.643372,1304.694580 672.145020,1307.258545 
	C664.061157,1321.091675 659.147034,1335.931030 658.203552,1352.097900 
	C657.788818,1359.204346 656.220703,1366.251465 655.013062,1373.297607 
	C654.737671,1374.904663 653.787720,1376.396240 653.148254,1377.940918 
	C652.732666,1377.856323 652.317078,1377.771729 651.901550,1377.687134 
	C651.586121,1375.098877 651.069519,1372.516724 650.991333,1369.921265 
	C650.710938,1360.599487 650.477844,1351.274048 650.408020,1341.948608 
	C650.133484,1305.293091 651.045959,1268.691284 654.174316,1232.134521 
	C657.075439,1198.234253 661.185669,1164.522217 668.995911,1131.398560 
	C682.534668,1073.979248 703.128479,1018.980957 727.560547,965.392029 
	C743.063477,931.388123 760.531799,898.462219 783.284790,868.607910 
	C784.511353,866.998657 785.825867,865.456360 787.099426,863.882874 
	C787.751282,865.736328 787.520935,867.002258 787.062256,868.179199 
	C765.065186,924.627014 758.512390,982.978455 765.976379,1042.935669 
	C768.853638,1066.048706 774.777100,1088.343140 786.817383,1108.648560 
	C791.321960,1116.245483 798.101440,1120.337646 806.550293,1121.255859 
	C808.984131,1121.520386 812.428528,1119.811646 814.114807,1117.878296 
	C816.524170,1115.115967 817.336121,1111.222534 814.956055,1107.677002 
	C813.761230,1105.897217 812.240295,1104.322266 810.772156,1102.742554 
	C801.787537,1093.074829 798.303772,1080.639893 793.697388,1068.777832 
	C793.363098,1067.917114 793.635986,1066.806274 793.682617,1065.814331 
	C794.847961,1041.031006 795.859680,1016.239319 797.229919,991.467407 
	C799.330139,953.499878 803.869568,915.828735 812.041382,878.655701 
	C814.793579,866.136108 818.172668,853.751404 820.790222,841.205933 
	C822.752563,831.801147 817.725830,826.515503 808.276917,828.050903 
	C803.955139,828.753174 799.400024,830.295532 795.809326,832.725525 
	C789.228943,837.178955 783.285461,842.573669 776.576721,848.076538 
M691.689758,669.697510 
	C701.625183,676.386963 711.633545,682.971802 721.456909,689.821960 
	C724.950134,692.257812 728.306763,692.632202 732.265686,691.419556 
	C737.658813,689.767822 739.279907,686.390869 735.443481,682.404053 
	C727.065125,673.696899 718.816895,664.665161 709.361450,657.234558 
	C688.487427,640.830811 663.599060,634.562805 637.723755,632.135193 
	C600.489380,628.641968 563.439941,630.967102 526.855591,638.426575 
	C408.409851,662.577515 308.711823,719.286377 229.868271,811.383179 
	C199.485855,846.872803 175.581909,886.367920 160.944290,931.021240 
	C151.672485,959.305725 146.431015,988.242676 150.039627,1018.086060 
	C151.019897,1026.192871 153.209335,1034.523193 156.712875,1041.858276 
	C160.761627,1050.334839 169.959442,1050.640381 175.926208,1043.266968 
	C179.035355,1039.424805 181.818039,1035.085205 183.720474,1030.540161 
	C192.265167,1010.125732 200.456329,989.563049 208.718979,969.031311 
	C209.322937,967.530640 209.482147,965.851074 209.848145,964.254639 
	C209.366852,964.035339 208.885559,963.815979 208.404282,963.596680 
	C207.348785,964.913513 206.114166,966.125061 205.267487,967.564697 
	C200.541458,975.601013 195.674103,983.567566 191.305496,991.797119 
	C185.997543,1001.796143 181.245972,1012.089233 176.030975,1022.139465 
	C173.878860,1026.286987 171.147354,1030.134033 168.679367,1034.117676 
	C168.114563,1033.927368 167.549744,1033.737183 166.984940,1033.546875 
	C166.984940,1029.320679 167.000351,1025.094238 166.982208,1020.868164 
	C166.911331,1004.352112 167.396057,987.870056 171.837372,971.825012 
	C181.335159,937.512695 197.790375,906.525574 218.724533,878.037231 
	C288.933685,782.492798 380.939453,715.963257 491.791382,675.095337 
	C528.710938,661.484131 566.839722,652.859863 606.382874,651.912720 
	C635.903259,651.205566 664.572021,655.057739 691.689758,669.697510 
M1136.886963,372.474487 
	C1042.659790,414.953888 964.272644,477.406616 901.666077,559.578735 
	C884.441101,582.186768 869.769409,606.397278 861.566895,633.893738 
	C859.405518,641.139099 858.738159,648.861328 857.809265,656.416748 
	C857.625671,657.910461 858.988708,660.503723 860.320435,661.122498 
	C867.387390,664.406555 871.166443,662.228394 872.755981,654.475708 
	C872.989258,653.337952 873.080566,652.108887 873.589355,651.099304 
	C880.165588,638.048767 885.804382,624.395996 893.590027,612.105347 
	C949.838135,523.310974 1024.254517,454.059845 1118.041626,406.178070 
	C1152.982544,388.339355 1189.208008,373.588013 1227.809814,365.483734 
	C1232.655884,364.466339 1237.675049,364.273010 1242.614014,363.697845 
	C1242.953735,364.468475 1243.293457,365.239105 1243.633179,366.009766 
	C1240.251953,368.962494 1237.226807,372.524628 1233.419922,374.748810 
	C1223.651978,380.455811 1213.373779,385.289459 1203.606689,390.997833 
	C1193.853638,396.697998 1183.750122,402.173737 1175.164673,409.374512 
	C1168.597656,414.882294 1163.360962,422.462341 1158.995972,429.971313 
	C1154.694702,437.370453 1156.712158,445.325500 1162.154053,451.807281 
	C1167.139526,457.745483 1173.635010,456.354187 1180.122559,454.544464 
	C1191.166138,451.463776 1202.167480,448.090271 1213.384155,445.814026 
	C1223.364502,443.788635 1233.362671,440.699585 1243.866089,442.866119 
	C1246.391602,443.387085 1249.166382,442.699738 1251.826538,442.568054 
	C1251.884155,442.093536 1251.941895,441.619049 1251.999634,441.144562 
	C1240.682495,437.430176 1230.641235,429.299164 1218.198853,429.842346 
	C1206.168335,430.367523 1194.220093,432.777710 1180.766479,434.553833 
	C1183.235474,431.152893 1184.542603,428.313446 1186.719482,426.543671 
	C1194.047852,420.585632 1201.443726,414.649933 1209.262085,409.369446 
	C1220.836304,401.552277 1233.114136,394.748016 1244.437744,386.602356 
	C1249.234009,383.152222 1253.260742,377.866882 1256.072388,372.582977 
	C1261.842285,361.739777 1255.950928,354.014038 1245.535034,352.406647 
	C1234.178223,350.654083 1222.312012,350.649841 1210.819824,351.642700 
	C1185.212402,353.855072 1161.170166,362.368500 1136.886963,372.474487 
M904.270508,937.370117 
	C920.249390,995.711304 930.461487,1055.098633 934.637146,1115.390503 
	C938.670349,1173.624634 941.581421,1231.941162 925.364502,1289.198975 
	C923.210938,1296.802612 928.736938,1304.475830 936.652771,1304.973755 
	C949.058899,1305.754150 958.519775,1302.211914 959.928711,1287.819336 
	C960.527222,1281.706299 960.137634,1275.486694 960.879578,1269.398682 
	C969.754028,1196.572754 969.522766,1123.776245 960.210083,1051.024780 
	C951.980713,986.736084 932.836853,925.824036 902.076782,868.766479 
	C894.134399,854.033936 884.472351,840.186462 874.987793,826.352295 
	C872.076111,822.105347 867.313904,819.003723 863.051331,815.847168 
	C859.884094,813.501770 856.643433,814.862427 856.998718,818.117493 
	C857.419556,821.973572 857.697021,826.357788 859.687012,829.451416 
	C880.953064,862.511047 893.338196,899.189880 904.270508,937.370117 
M431.954010,1048.537598 
	C432.499481,1025.704712 438.407623,1003.834717 443.776764,981.853882 
	C444.333679,979.573914 443.575500,976.972656 443.427521,974.520508 
	C440.655365,974.708069 437.703705,974.374268 435.167633,975.247559 
	C433.122559,975.951660 431.141083,977.819275 429.892120,979.681152 
	C425.371582,986.419800 420.271515,992.975281 417.020599,1000.321411 
	C407.458191,1021.929749 404.824799,1044.842651 406.605103,1068.266724 
	C407.635895,1081.828613 410.587402,1094.943481 417.671387,1106.809448 
	C421.999817,1114.059814 427.823975,1119.477905 436.113800,1121.987671 
	C444.033875,1124.385620 448.982269,1122.281616 451.965698,1114.472778 
	C454.816620,1107.010742 457.227051,1099.380981 459.856598,1091.833984 
	C481.616455,1029.380859 513.058167,971.968872 550.966003,918.010315 
	C567.822266,894.016663 585.268433,870.431580 607.304932,850.707031 
	C645.709412,816.331787 687.486389,786.842773 733.182922,762.909119 
	C740.277710,759.193176 746.809814,754.402771 754.100647,749.794067 
	C750.154968,746.019592 746.385681,744.948975 742.717285,746.345520 
	C730.168823,751.122375 717.085144,755.071655 705.441956,761.556396 
	C615.889160,811.433411 544.092224,880.447144 488.526520,966.291992 
	C465.072601,1002.526489 446.276062,1041.056763 438.767700,1084.186890 
	C438.680603,1084.687134 438.079102,1085.098022 437.717712,1085.550537 
	C437.214478,1085.539917 436.711273,1085.529297 436.208038,1085.518677 
	C434.789551,1073.497803 433.371094,1061.476929 431.954010,1048.537598 
M994.195374,814.376953 
	C974.778137,799.338379 954.857544,784.917419 931.775146,776.092712 
	C919.924194,771.562012 907.256165,769.117432 894.879883,766.042175 
	C890.984436,765.074219 886.933655,765.822998 885.217651,770.179321 
	C883.449036,774.669006 885.699707,778.070557 889.514099,780.188232 
	C893.113403,782.186279 896.974243,783.759521 900.826172,785.244324 
	C905.299255,786.968689 910.105957,787.948425 914.379517,790.043518 
	C922.449463,793.999573 930.483398,798.132996 938.111145,802.870789 
	C1003.460876,843.461243 1055.226074,897.366455 1092.537720,964.490356 
	C1113.240967,1001.735474 1131.500366,1040.341309 1150.771484,1078.379395 
	C1161.037964,1098.643433 1169.677734,1119.240112 1171.365356,1142.533447 
	C1172.112305,1152.842896 1177.018921,1162.929443 1180.598145,1172.916138 
	C1182.002319,1176.833984 1185.487427,1179.412964 1190.194946,1178.276245 
	C1194.987427,1177.119019 1195.863770,1173.247192 1196.160278,1169.007080 
	C1196.989746,1157.143066 1194.734741,1145.981812 1190.232178,1134.912354 
	C1182.580566,1116.101074 1175.011353,1097.196167 1168.735107,1077.898804 
	C1157.301636,1042.744873 1142.463989,1009.150208 1125.321533,976.477173 
	C1092.504272,913.928467 1051.174927,858.286560 994.195374,814.376953 
M812.332397,449.104248 
	C818.330566,425.385986 823.580505,401.445984 830.525452,378.008270 
	C838.367981,351.541229 847.692932,325.511810 856.488525,299.330811 
	C857.634583,295.919525 857.598511,292.602997 854.636292,290.853241 
	C852.059326,289.331085 848.138123,287.998718 845.649475,288.899384 
	C841.872803,290.266266 837.997070,293.043732 835.650085,296.295105 
	C831.799866,301.628784 829.290100,307.909454 825.954285,313.638977 
	C816.427917,330.001556 810.420532,347.797211 806.355347,366.053253 
	C799.971069,394.724152 794.434753,423.600433 789.233887,452.514679 
	C780.186890,502.811798 774.472351,553.391418 778.959717,604.630798 
	C779.013672,605.247009 778.870972,605.880554 778.774170,607.069458 
	C777.075378,605.951538 775.789001,604.963928 774.380920,604.200867 
	C763.577942,598.346313 753.031616,591.909302 741.846924,586.900635 
	C732.148560,582.557434 723.072266,587.631897 721.060547,598.046814 
	C720.124329,602.893433 720.995972,608.231201 721.827698,613.216309 
	C722.230286,615.629272 724.369751,619.533630 725.832153,619.583923 
	C728.204834,619.665527 731.022644,617.495544 732.978882,615.585999 
	C734.525269,614.076416 735.059143,611.529968 736.044006,609.444580 
	C737.084656,607.241089 738.126770,605.038269 739.422302,602.297913 
	C760.296204,612.933228 777.125916,627.234253 789.964783,646.245239 
	C791.793152,648.952515 793.972717,651.671753 796.608704,653.486450 
	C798.071289,654.493225 801.657715,654.548523 802.832336,653.461243 
	C807.329102,649.299133 810.445435,644.954895 806.960510,637.558105 
	C805.128845,633.670166 803.160217,629.585938 802.596008,625.408997 
	C800.638611,610.917358 798.236023,596.372314 797.869019,581.800598 
	C796.747131,537.261169 803.458984,493.465454 812.332397,449.104248 
M436.268402,430.010315 
	C420.019836,430.331055 403.725250,429.998474 387.534424,431.139069 
	C367.608276,432.542816 348.608643,438.057770 331.025482,447.797150 
	C312.931366,457.819611 299.438049,471.862549 293.504578,492.151917 
	C292.548798,495.420227 291.518372,499.287781 292.382965,502.353668 
	C295.244202,512.500183 301.210693,520.597046 311.217285,524.882812 
	C318.399933,527.958984 325.913727,529.511780 335.186157,528.313354 
	C332.993713,525.979614 331.856476,524.407715 330.384735,523.267578 
	C325.120300,519.189331 319.685333,515.331177 314.419647,511.254486 
	C304.081757,503.250732 303.656586,497.057709 313.216919,488.058624 
	C316.944763,484.549683 321.164825,481.416687 325.567535,478.795929 
	C350.566925,463.914978 377.790436,456.365112 406.774689,455.463531 
	C436.142334,454.550018 464.822815,459.725983 493.180939,466.682037 
	C539.910950,478.144592 584.718384,494.774872 627.177917,517.545715 
	C628.365417,518.182556 629.725647,518.497131 631.005371,518.961975 
	C631.276917,518.583984 631.548462,518.205994 631.820007,517.827942 
	C630.328003,516.271362 629.025085,514.457397 627.313293,513.199890 
	C616.046448,504.923187 604.721130,496.725006 593.359680,488.578278 
	C559.451660,464.264465 522.349426,446.806488 481.588623,437.671967 
	C466.958191,434.393311 452.006317,432.548981 436.268402,430.010315 
M1222.395996,685.628479 
	C1266.691895,696.176575 1309.347656,711.185303 1348.770264,734.200134 
	C1360.746582,741.191895 1371.467163,750.383362 1382.494629,758.914124 
	C1384.998047,760.850891 1386.386719,764.228943 1388.288452,766.943604 
	C1387.917847,767.500610 1387.547363,768.057678 1387.176758,768.614685 
	C1383.673950,768.139771 1380.113281,767.921204 1376.677612,767.147888 
	C1356.562500,762.620239 1336.554077,757.577637 1316.347168,753.517700 
	C1306.780884,751.595703 1296.863770,751.334167 1287.083618,750.623535 
	C1284.614746,750.444153 1282.061401,751.429077 1279.546875,751.879028 
	C1279.607910,752.361450 1279.669067,752.843872 1279.730103,753.326294 
	C1280.722534,753.838318 1281.665283,754.515930 1282.716675,754.832214 
	C1286.217163,755.885315 1289.701172,757.166199 1293.290283,757.725220 
	C1322.259644,762.237427 1350.920776,768.053650 1378.920044,776.914795 
	C1381.858887,777.844849 1385.197510,777.993896 1388.307861,777.803955 
	C1395.953125,777.337219 1400.583008,771.710876 1398.145874,764.491089 
	C1396.301636,759.027344 1392.949463,753.671265 1389.043457,749.383179 
	C1378.969727,738.324463 1366.429321,730.271973 1353.482788,722.969360 
	C1294.028564,689.433899 1229.903442,670.217773 1162.436523,662.013550 
	C1100.137817,654.437805 1038.446899,658.227051 977.724915,674.711121 
	C955.812012,680.659668 934.528503,688.245850 914.884949,699.867004 
	C912.044312,701.547485 908.264221,703.737122 910.506042,707.531189 
	C912.689331,711.226318 916.619080,709.640808 919.882141,708.071594 
	C920.180725,707.928040 920.436218,707.692627 920.737671,707.557861 
	C930.417542,703.227539 939.810303,698.014587 949.836243,694.742126 
	C983.965088,683.602478 1019.050964,676.987488 1054.826538,673.724365 
	C1111.076416,668.593689 1166.627930,672.587158 1222.395996,685.628479 
M655.608521,392.944550 
	C634.625366,377.990051 612.782043,364.527588 587.690308,357.667419 
	C571.862244,353.339966 555.817810,350.112152 540.410767,360.089325 
	C534.930603,363.638153 533.007568,366.952667 535.345581,373.226685 
	C538.015015,380.389923 543.228516,385.521942 549.473694,389.568146 
	C551.044678,390.585999 553.367737,390.443085 555.345154,390.833588 
	C555.014954,388.795319 555.224670,386.444794 554.258667,384.774170 
	C550.571533,378.397736 551.382019,375.193329 558.165405,372.658752 
	C559.771240,372.058746 561.844360,372.000793 563.520325,372.420654 
	C570.616333,374.198517 577.811401,375.789581 584.666565,378.283539 
	C611.840942,388.169739 634.876709,405.192627 657.096069,422.923676 
	C673.033386,435.641602 686.941467,450.902893 701.749146,465.035583 
	C707.887207,470.893921 714.606750,476.267975 720.024841,482.731537 
	C734.513428,500.015900 743.945923,520.303101 752.439941,540.969910 
	C754.269043,545.420410 754.055725,550.697266 754.884583,555.576233 
	C755.461060,558.969971 755.896423,562.438782 756.974609,565.681213 
	C757.992065,568.740967 760.170837,572.080383 763.747498,570.790100 
	C766.235779,569.892517 768.812805,567.013855 769.745239,564.438965 
	C772.827332,555.928101 772.265381,547.123901 770.373230,538.350342 
	C766.262573,519.290161 757.288086,502.404846 746.676147,486.379608 
	C722.388245,449.701935 691.709290,419.155579 655.608521,392.944550 
M652.436707,688.122192 
	C636.383667,687.403381 620.474670,688.604248 604.753784,691.929504 
	C580.154541,697.132629 557.177368,705.998169 537.829895,722.605408 
	C525.938538,732.812439 516.603821,744.891846 513.921631,760.766968 
	C512.912720,766.738464 512.856445,773.113464 513.814636,779.071533 
	C514.287964,782.014526 517.565735,785.506653 520.451050,786.809753 
	C524.103577,788.459229 526.707397,784.923035 528.773499,781.980286 
	C530.302673,779.802246 531.708069,777.521729 533.391968,775.470276 
	C557.947205,745.555115 589.703125,726.936279 626.729919,717.187561 
	C653.496643,710.140137 680.435425,709.077942 706.757324,719.532166 
	C713.015198,722.017578 718.735718,725.857544 724.698425,729.083740 
	C728.768433,731.285828 732.681213,730.645142 735.399658,727.108521 
	C738.199036,723.466492 736.945312,720.109680 734.031311,717.334961 
	C731.269104,714.704468 728.393433,712.074829 725.185913,710.049316 
	C703.278564,696.215393 679.240356,689.221985 652.436707,688.122192 
M1311.256226,862.176941 
	C1304.244507,853.071289 1297.571899,843.679077 1290.160767,834.911011 
	C1262.552856,802.248108 1230.914551,774.512512 1191.663574,756.468750 
	C1172.082031,747.467102 1151.618530,741.586548 1129.851929,742.527161 
	C1122.664307,742.837769 1115.451904,744.755432 1108.492676,746.772522 
	C1106.546387,747.336731 1104.321777,750.888184 1104.345703,753.045837 
	C1104.364624,754.750793 1107.370972,757.242920 1109.515259,757.925354 
	C1113.428345,759.170837 1117.668945,759.497498 1121.802124,759.922913 
	C1144.702759,762.279846 1167.054810,766.848694 1186.932739,779.052368 
	C1219.466187,799.025635 1248.822876,823.185608 1275.067993,850.779236 
	C1294.304810,871.004211 1309.004150,894.790039 1322.665771,919.108337 
	C1323.642700,920.847412 1324.554565,922.656738 1325.769043,924.222107 
	C1329.035278,928.432007 1334.376099,929.656921 1338.691528,927.361206 
	C1343.002686,925.067749 1344.880493,919.979553 1343.177002,914.864319 
	C1342.655396,913.298035 1341.937378,911.757812 1341.072266,910.351624 
	C1331.301636,894.469971 1321.484863,878.616699 1311.256226,862.176941 
M1059.424805,282.133026 
	C1062.383301,279.684509 1063.573242,276.139130 1061.437866,273.299927 
	C1059.720703,271.016632 1056.019165,268.638550 1053.429077,268.871338 
	C1041.720337,269.923737 1029.818604,270.816254 1018.487427,273.720795 
	C979.891418,283.614075 946.289551,303.415436 915.594055,328.305695 
	C883.152771,354.611664 855.870239,385.333984 837.220703,423.075378 
	C830.771912,436.125946 825.803833,449.749451 824.620178,464.407196 
	C824.304749,468.313507 824.313477,472.628296 825.694031,476.161346 
	C826.693909,478.720184 830.054688,481.624603 832.639526,481.915588 
	C834.920471,482.172424 838.245728,479.508881 839.899902,477.249084 
	C841.669006,474.832123 842.272217,471.434113 842.952026,468.368439 
	C846.991943,450.150848 853.985779,433.129791 863.528992,417.142700 
	C885.251770,380.751984 914.640015,351.576447 949.028625,327.289093 
	C977.307678,307.316711 1007.751038,291.910156 1042.175903,285.525635 
	C1047.711548,284.498962 1053.263428,283.560059 1059.424805,282.133026 
M675.973022,902.542542 
	C693.243286,875.354736 712.288269,849.487000 733.353943,825.106567 
	C736.277588,821.722961 739.385254,818.225952 741.167480,814.228516 
	C742.271362,811.752563 741.033264,808.232544 740.846497,805.181152 
	C738.398315,805.669678 735.709900,805.679138 733.558289,806.758728 
	C730.318054,808.384460 727.123718,810.407166 724.489990,812.879211 
	C716.117920,820.737427 707.477844,828.407898 699.895935,836.993958 
	C658.715942,883.628113 626.984497,936.209839 602.897400,993.453613 
	C595.397522,1011.277222 588.731262,1029.445801 586.424683,1048.828735 
	C585.960632,1052.728516 585.970642,1056.851807 586.717407,1060.685791 
	C587.635376,1065.399658 591.120178,1068.095947 596.039368,1068.232056 
	C600.983093,1068.369019 604.149292,1065.626953 605.889526,1061.192749 
	C606.491699,1059.658569 606.677734,1057.964355 607.097168,1056.354492 
	C610.618530,1042.841553 613.195251,1028.991699 617.856506,1015.883423 
	C632.107056,975.808777 652.914185,938.976440 675.973022,902.542542 
M986.696960,888.728027 
	C973.062805,871.132751 957.739685,855.168823 939.842957,841.900574 
	C931.330688,835.589722 922.221313,830.051819 913.126892,824.589111 
	C911.537537,823.634399 908.677856,824.794434 906.404785,824.977844 
	C907.160828,827.090515 907.344299,829.769409 908.774475,831.215454 
	C914.264099,836.766113 920.244812,841.826477 925.878906,847.239929 
	C955.622498,875.818726 979.964600,908.170044 995.773987,946.602356 
	C1007.836487,975.925842 1013.874695,1006.415833 1014.828613,1038.026245 
	C1015.003845,1043.831665 1015.318542,1049.694214 1016.328125,1055.395874 
	C1017.328247,1061.044189 1021.724792,1064.467896 1026.687256,1064.635498 
	C1031.585815,1064.800781 1036.141113,1061.590088 1037.692993,1056.110962 
	C1038.770508,1052.306641 1039.493774,1048.261230 1039.498657,1044.322388 
	C1039.510132,1035.175903 1039.552734,1025.969360 1038.592041,1016.891907 
	C1033.576782,969.504150 1015.993469,927.102905 986.696960,888.728027 
M877.082947,529.698730 
	C887.655823,513.066650 900.536194,498.616913 916.999512,487.570312 
	C924.062012,482.831451 931.570374,479.733612 940.379089,480.298126 
	C948.296204,480.805511 951.344177,476.723541 948.105164,469.464569 
	C946.929932,466.830688 943.770386,464.132080 940.996521,463.380127 
	C936.631775,462.196808 931.722656,461.892120 927.227844,462.523682 
	C912.025024,464.659790 899.364014,472.440826 888.097351,482.324707 
	C854.001526,512.235901 831.061768,549.292175 818.848450,592.909363 
	C815.008240,606.623779 812.962585,620.725830 815.972168,634.896301 
	C817.159729,640.487915 819.433533,646.019165 822.162231,651.064392 
	C824.809937,655.959900 830.261292,657.248596 834.689880,655.212341 
	C839.125610,653.172791 841.070007,648.394165 839.676880,642.920410 
	C839.512878,642.276062 839.287170,641.646118 839.065369,641.018127 
	C836.491577,633.730957 836.267151,626.420959 838.348328,618.931335 
	C847.049622,587.617798 859.376526,557.887146 877.082947,529.698730 
M402.363770,790.876221 
	C418.879761,773.113464 437.229828,757.516663 457.363739,743.982483 
	C461.068085,741.492371 464.521088,738.547974 467.728699,735.440186 
	C468.958313,734.248840 469.176788,732.013855 469.855988,730.254456 
	C468.186157,729.791138 466.294708,728.578064 464.884949,728.994812 
	C458.892487,730.766052 452.622803,732.255554 447.211945,735.227356 
	C420.602661,749.842224 398.280792,769.684387 379.098206,793.077637 
	C354.020538,823.659729 332.596161,856.430420 320.470673,894.483093 
	C314.394806,913.550537 311.007080,933.002502 315.346405,953.013367 
	C317.697571,963.855652 322.601990,973.391785 331.089813,980.774963 
	C335.399200,984.523438 340.746033,984.456177 344.140015,980.909973 
	C347.506805,977.392029 347.400421,971.923767 343.242035,967.966492 
	C336.575348,961.622131 333.658783,953.707275 332.559753,944.901672 
	C330.796814,930.776428 332.823822,916.973145 336.667999,903.428772 
	C348.841797,860.536438 372.171814,824.099915 402.363770,790.876221 
M949.934265,745.360413 
	C952.907715,746.577271 955.793396,748.118958 958.870911,748.950745 
	C968.631409,751.588684 978.724243,753.232971 988.200195,756.625732 
	C999.448730,760.653259 1010.325684,765.814209 1021.124756,770.983032 
	C1048.392578,784.034424 1072.312866,801.366638 1090.085327,826.304810 
	C1096.162964,834.832947 1102.426880,843.237366 1108.227173,851.950256 
	C1111.267944,856.517944 1115.310425,859.128418 1120.464600,859.456299 
	C1122.218750,859.567932 1125.614136,857.322021 1125.698853,855.990234 
	C1125.995239,851.337402 1126.562988,845.859497 1124.504639,842.062927 
	C1119.144043,832.175232 1112.848877,822.718750 1106.210938,813.611877 
	C1075.505371,771.484985 1032.540039,748.340576 983.274536,735.354370 
	C974.023682,732.915833 964.432312,733.044312 955.119141,735.840759 
	C950.867493,737.117371 947.964355,739.558167 949.934265,745.360413 
M988.395142,603.008301 
	C987.436768,603.290405 986.477173,603.568604 985.520142,603.855164 
	C960.195557,611.437866 935.634460,620.839478 914.083862,636.505371 
	C907.154724,641.542419 901.113159,647.908020 895.142944,654.124390 
	C889.783569,659.704834 888.841614,667.196716 888.358276,674.566528 
	C888.265381,675.983276 889.210449,677.891602 890.313660,678.797729 
	C890.933411,679.306763 893.098694,678.560059 894.145813,677.798889 
	C896.691528,675.948120 899.307678,674.029358 901.335266,671.658813 
	C910.902954,660.472778 922.647583,652.100525 935.246765,644.773132 
	C961.062622,629.759338 988.674561,619.197815 1017.588684,612.048889 
	C1039.865845,606.541016 1062.333740,603.004089 1085.295654,608.032959 
	C1089.386108,608.928772 1092.778809,607.410583 1093.786987,603.097229 
	C1094.804688,598.742676 1092.271118,595.716736 1088.295532,594.959595 
	C1080.960938,593.562683 1073.509766,592.200134 1066.076172,592.005615 
	C1039.880005,591.320129 1014.366516,596.025879 988.395142,603.008301 
M679.641052,617.810181 
	C684.127930,620.764343 687.513000,625.683411 694.394836,626.157532 
	C687.404114,613.466125 676.445862,605.502197 665.906616,597.960571 
	C655.787659,590.719604 643.723755,586.102295 632.291809,580.813599 
	C616.548401,573.530334 600.207336,567.358582 582.826599,566.268188 
	C565.777100,565.198486 548.538513,565.091309 531.515381,566.351685 
	C519.564880,567.236389 507.798920,570.968933 496.053650,573.850159 
	C494.461517,574.240784 493.470978,577.083618 492.201843,578.790955 
	C494.110199,579.306274 495.994019,579.999146 497.936493,580.267334 
	C499.024048,580.417480 500.198425,579.752075 501.351410,579.644714 
	C510.250275,578.815491 519.205933,577.009888 528.043701,577.463074 
	C543.296265,578.245056 558.492371,580.302856 573.683105,582.074219 
	C595.866211,584.660889 617.939575,588.071411 639.002686,595.799194 
	C653.333313,601.056885 667.450012,606.991699 679.641052,617.810181 
M964.863708,1348.143555 
	C967.608215,1341.008545 966.269409,1334.427856 962.088257,1328.276123 
	C956.823120,1320.529663 949.182129,1316.147095 940.251221,1314.644165 
	C932.988770,1313.421997 926.273499,1315.878418 921.594299,1321.861328 
	C917.221619,1327.452148 917.085388,1333.807007 919.697937,1340.282227 
	C922.656189,1347.614380 928.049133,1352.917236 935.030518,1355.970947 
	C944.239197,1359.999023 958.369263,1360.484619 964.863708,1348.143555 
M495.370056,831.417725 
	C506.222534,835.409912 516.831238,831.005554 520.756897,820.878052 
	C524.538208,811.122864 519.545959,800.066528 509.706116,796.403870 
	C500.949738,793.144531 490.722870,797.305664 486.528748,805.834290 
	C481.964996,815.114563 485.155334,825.001709 495.370056,831.417725 
M1134.273193,901.150146 
	C1145.723267,895.518433 1149.057617,883.279785 1141.510620,874.585632 
	C1136.210083,868.479492 1127.035767,867.014893 1120.252075,871.192078 
	C1113.366577,875.431946 1110.516724,884.117004 1113.554565,891.602905 
	C1116.756348,899.492676 1124.421143,903.260742 1134.273193,901.150146 
M462.146240,1158.183228 
	C456.586121,1154.182129 450.753174,1155.569336 450.278534,1162.071167 
	C449.477631,1173.042847 449.793213,1184.191528 450.793671,1195.160400 
	C451.317963,1200.908569 456.904877,1203.857666 462.212799,1203.119995 
	C467.186249,1202.428589 471.404175,1198.223511 471.061737,1192.692017 
	C470.333435,1180.927246 468.718811,1169.247803 462.146240,1158.183228 
M457.425568,1231.491577 
	C458.337067,1238.581055 458.865631,1245.747192 460.266846,1252.738525 
	C461.694824,1259.863037 466.749115,1263.382324 472.619995,1262.333252 
	C478.332764,1261.312622 481.974487,1255.993774 480.744049,1248.934937 
	C479.406952,1241.263916 477.383423,1233.689575 475.230621,1226.196289 
	C474.482178,1223.591187 472.825348,1220.999023 470.935150,1219.020142 
	C466.658081,1214.542236 460.076691,1216.251953 458.427612,1222.200928 
	C457.683868,1224.883911 457.729614,1227.785522 457.425568,1231.491577 
M503.120483,1190.968872 
	C495.958313,1192.276611 488.729950,1193.308105 481.660431,1195.002441 
	C477.825806,1195.921509 474.466187,1198.388428 474.987305,1203.062622 
	C475.488892,1207.561768 478.787903,1210.687988 482.906158,1210.786133 
	C492.971344,1211.025757 503.107635,1210.797119 513.102783,1209.716797 
	C515.646423,1209.441772 518.611572,1205.656738 519.875244,1202.814087 
	C521.476501,1199.212158 519.778687,1195.036011 516.225159,1193.458496 
	C512.502075,1191.805786 508.099854,1191.683228 503.120483,1190.968872 
M446.056091,1208.437134 
	C443.618347,1207.511841 441.202179,1205.864380 438.738922,1205.790771 
	C429.764801,1205.522339 420.773285,1205.701660 411.792206,1205.893066 
	C409.494568,1205.942017 406.869934,1206.092896 405.012909,1207.216797 
	C402.981567,1208.446411 400.462646,1210.805664 400.376587,1212.769653 
	C400.290558,1214.733643 402.735107,1217.035889 404.491058,1218.761841 
	C405.435516,1219.690186 407.237488,1219.964722 408.695923,1220.116333 
	C418.782715,1221.163818 428.863373,1222.520996 438.980927,1222.943970 
	C447.339355,1223.293457 450.849762,1216.313599 446.056091,1208.437134 
M866.691162,250.706314 
	C857.281799,247.989731 845.178101,258.671478 847.416931,269.047058 
	C848.831970,275.604797 854.804138,280.109680 861.739685,279.844086 
	C869.276917,279.555481 876.660339,273.413635 877.849731,266.443115 
	C878.987915,259.772736 874.996216,253.781555 866.691162,250.706314 
M983.222107,439.202637 
	C976.110535,434.689117 968.145813,436.270264 963.144470,443.188324 
	C958.628601,449.434937 960.127258,457.357300 966.691467,461.938751 
	C972.890625,466.265472 980.704773,464.621643 984.892944,458.109802 
	C988.820312,452.003357 988.433716,445.712708 983.222107,439.202637 
M1414.798950,642.708435 
	C1407.327759,643.535767 1399.802979,644.069275 1392.425659,645.412231 
	C1390.738892,645.719360 1388.599365,648.751953 1388.469238,650.653381 
	C1388.374756,652.033997 1391.091675,654.658997 1392.827881,654.920837 
	C1398.681763,655.803894 1404.698975,656.444458 1410.568237,656.013245 
	C1413.295776,655.812927 1416.659302,653.484619 1418.232056,651.121155 
	C1420.141113,648.252563 1418.356445,645.096313 1414.798950,642.708435 
M1387.991333,684.030945 
	C1386.206055,676.973755 1384.648926,669.845093 1382.476685,662.909119 
	C1381.926392,661.152039 1379.415161,660.008972 1377.805054,658.583801 
	C1376.700684,660.598450 1374.536499,662.689880 1374.675903,664.614441 
	C1375.272339,672.848694 1376.346069,681.068665 1377.747925,689.207275 
	C1378.026733,690.826538 1380.313477,692.788635 1382.038452,693.259888 
	C1383.510132,693.661804 1386.294189,692.635071 1387.076294,691.365051 
	C1388.149658,689.621765 1387.880737,687.051941 1387.991333,684.030945 
M1383.566650,643.975098 
	C1383.389404,637.020203 1383.531128,630.031555 1382.801270,623.135132 
	C1382.627930,621.497803 1379.639526,619.219604 1377.749634,619.010620 
	C1376.332153,618.853943 1373.237427,621.543030 1373.239136,622.962341 
	C1373.247192,629.897339 1373.810913,636.862549 1374.729980,643.743408 
	C1374.952271,645.409180 1377.113037,647.768494 1378.667358,648.015320 
	C1380.012451,648.228760 1381.761353,645.898621 1383.566650,643.975098 
M1345.896851,658.459473 
	C1349.774048,661.305359 1362.466553,661.413818 1366.056396,658.300903 
	C1367.217041,657.294556 1368.321167,655.009338 1367.948975,653.754822 
	C1367.480225,652.174805 1365.678101,650.342590 1364.083984,649.877319 
	C1360.633789,648.870178 1356.943359,648.703308 1353.362671,648.122192 
	C1346.507812,647.009705 1343.184326,651.100769 1345.896851,658.459473 
z"/>
<path fill="#F6DC5C" opacity="1.000000" stroke="none" 
	d="
M776.826538,847.826172 
	C783.285461,842.573669 789.228943,837.178955 795.809326,832.725525 
	C799.400024,830.295532 803.955139,828.753174 808.276917,828.050903 
	C817.725830,826.515503 822.752563,831.801147 820.790222,841.205933 
	C818.172668,853.751404 814.793579,866.136108 812.041382,878.655701 
	C803.869568,915.828735 799.330139,953.499878 797.229919,991.467407 
	C795.859680,1016.239319 794.847961,1041.031006 793.682617,1065.814331 
	C793.635986,1066.806274 793.363098,1067.917114 793.697388,1068.777832 
	C798.303772,1080.639893 801.787537,1093.074829 810.772156,1102.742554 
	C812.240295,1104.322266 813.761230,1105.897217 814.956055,1107.677002 
	C817.336121,1111.222534 816.524170,1115.115967 814.114807,1117.878296 
	C812.428528,1119.811646 808.984131,1121.520386 806.550293,1121.255859 
	C798.101440,1120.337646 791.321960,1116.245483 786.817383,1108.648560 
	C774.777100,1088.343140 768.853638,1066.048706 765.976379,1042.935669 
	C758.512390,982.978455 765.065186,924.627014 787.062256,868.179199 
	C787.520935,867.002258 787.751282,865.736328 787.099426,863.882874 
	C785.825867,865.456360 784.511353,866.998657 783.284790,868.607910 
	C760.531799,898.462219 743.063477,931.388123 727.560547,965.392029 
	C703.128479,1018.980957 682.534668,1073.979248 668.995911,1131.398560 
	C661.185669,1164.522217 657.075439,1198.234253 654.174316,1232.134521 
	C651.045959,1268.691284 650.133484,1305.293091 650.408020,1341.948608 
	C650.477844,1351.274048 650.710938,1360.599487 650.991333,1369.921265 
	C651.069519,1372.516724 651.586121,1375.098877 651.901550,1377.687134 
	C652.317078,1377.771729 652.732666,1377.856323 653.148254,1377.940918 
	C653.787720,1376.396240 654.737671,1374.904663 655.013062,1373.297607 
	C656.220703,1366.251465 657.788818,1359.204346 658.203552,1352.097900 
	C659.147034,1335.931030 664.061157,1321.091675 672.145020,1307.258545 
	C673.643372,1304.694580 676.231934,1302.030762 678.909302,1301.079712 
	C682.239685,1299.896851 686.605225,1298.517212 689.509277,1302.432373 
	C692.595886,1306.593506 694.044495,1311.434326 692.724365,1316.519287 
	C692.482910,1317.449219 689.194336,1318.431274 687.752747,1317.980591 
	C686.158325,1317.482056 685.070312,1315.364380 683.373962,1313.533325 
	C679.452698,1324.477295 677.664978,1335.542114 676.847046,1346.763062 
	C676.278259,1354.566284 676.319397,1362.412354 675.863770,1370.226196 
	C675.333618,1379.317871 671.710327,1387.447632 666.320679,1394.494873 
	C658.239990,1405.061157 645.475159,1403.576050 637.800110,1392.594238 
	C625.209167,1374.578613 620.468750,1354.297607 618.768188,1332.937866 
	C615.891479,1296.804688 619.256592,1260.986328 625.093079,1225.411255 
	C641.567383,1124.995728 671.684143,1028.870239 717.130798,937.714661 
	C729.780457,912.342407 744.077332,887.892029 761.561646,865.470093 
	C766.265747,859.437561 771.555725,853.861938 776.826538,847.826172 
z"/>
<path fill="#7DC4F4" opacity="1.000000" stroke="none" 
	d="
M691.374207,669.505737 
	C664.572021,655.057739 635.903259,651.205566 606.382874,651.912720 
	C566.839722,652.859863 528.710938,661.484131 491.791382,675.095337 
	C380.939453,715.963257 288.933685,782.492798 218.724533,878.037231 
	C197.790375,906.525574 181.335159,937.512695 171.837372,971.825012 
	C167.396057,987.870056 166.911331,1004.352112 166.982208,1020.868164 
	C167.000351,1025.094238 166.984940,1029.320679 166.984940,1033.546875 
	C167.549744,1033.737183 168.114563,1033.927368 168.679367,1034.117676 
	C171.147354,1030.134033 173.878860,1026.286987 176.030975,1022.139465 
	C181.245972,1012.089233 185.997543,1001.796143 191.305496,991.797119 
	C195.674103,983.567566 200.541458,975.601013 205.267487,967.564697 
	C206.114166,966.125061 207.348785,964.913513 208.404282,963.596680 
	C208.885559,963.815979 209.366852,964.035339 209.848145,964.254639 
	C209.482147,965.851074 209.322937,967.530640 208.718979,969.031311 
	C200.456329,989.563049 192.265167,1010.125732 183.720474,1030.540161 
	C181.818039,1035.085205 179.035355,1039.424805 175.926208,1043.266968 
	C169.959442,1050.640381 160.761627,1050.334839 156.712875,1041.858276 
	C153.209335,1034.523193 151.019897,1026.192871 150.039627,1018.086060 
	C146.431015,988.242676 151.672485,959.305725 160.944290,931.021240 
	C175.581909,886.367920 199.485855,846.872803 229.868271,811.383179 
	C308.711823,719.286377 408.409851,662.577515 526.855591,638.426575 
	C563.439941,630.967102 600.489380,628.641968 637.723755,632.135193 
	C663.599060,634.562805 688.487427,640.830811 709.361450,657.234558 
	C718.816895,664.665161 727.065125,673.696899 735.443481,682.404053 
	C739.279907,686.390869 737.658813,689.767822 732.265686,691.419556 
	C728.306763,692.632202 724.950134,692.257812 721.456909,689.821960 
	C711.633545,682.971802 701.625183,676.386963 691.374207,669.505737 
z"/>
<path fill="#FAC60A" opacity="1.000000" stroke="none" 
	d="
M1137.227661,372.302551 
	C1161.170166,362.368500 1185.212402,353.855072 1210.819824,351.642700 
	C1222.312012,350.649841 1234.178223,350.654083 1245.535034,352.406647 
	C1255.950928,354.014038 1261.842285,361.739777 1256.072388,372.582977 
	C1253.260742,377.866882 1249.234009,383.152222 1244.437744,386.602356 
	C1233.114136,394.748016 1220.836304,401.552277 1209.262085,409.369446 
	C1201.443726,414.649933 1194.047852,420.585632 1186.719482,426.543671 
	C1184.542603,428.313446 1183.235474,431.152893 1180.766479,434.553833 
	C1194.220093,432.777710 1206.168335,430.367523 1218.198853,429.842346 
	C1230.641235,429.299164 1240.682495,437.430176 1251.999634,441.144562 
	C1251.941895,441.619049 1251.884155,442.093536 1251.826538,442.568054 
	C1249.166382,442.699738 1246.391602,443.387085 1243.866089,442.866119 
	C1233.362671,440.699585 1223.364502,443.788635 1213.384155,445.814026 
	C1202.167480,448.090271 1191.166138,451.463776 1180.122559,454.544464 
	C1173.635010,456.354187 1167.139526,457.745483 1162.154053,451.807281 
	C1156.712158,445.325500 1154.694702,437.370453 1158.995972,429.971313 
	C1163.360962,422.462341 1168.597656,414.882294 1175.164673,409.374512 
	C1183.750122,402.173737 1193.853638,396.697998 1203.606689,390.997833 
	C1213.373779,385.289459 1223.651978,380.455811 1233.419922,374.748810 
	C1237.226807,372.524628 1240.251953,368.962494 1243.633179,366.009766 
	C1243.293457,365.239105 1242.953735,364.468475 1242.614014,363.697845 
	C1237.675049,364.273010 1232.655884,364.466339 1227.809814,365.483734 
	C1189.208008,373.588013 1152.982544,388.339355 1118.041626,406.178070 
	C1024.254517,454.059845 949.838135,523.310974 893.590027,612.105347 
	C885.804382,624.395996 880.165588,638.048767 873.589355,651.099304 
	C873.080566,652.108887 872.989258,653.337952 872.755981,654.475708 
	C871.166443,662.228394 867.387390,664.406555 860.320435,661.122498 
	C858.988708,660.503723 857.625671,657.910461 857.809265,656.416748 
	C858.738159,648.861328 859.405518,641.139099 861.566895,633.893738 
	C869.769409,606.397278 884.441101,582.186768 901.666077,559.578735 
	C964.272644,477.406616 1042.659790,414.953888 1137.227661,372.302551 
z"/>
<path fill="#FBC70A" opacity="1.000000" stroke="none" 
	d="
M904.163452,936.976318 
	C893.338196,899.189880 880.953064,862.511047 859.687012,829.451416 
	C857.697021,826.357788 857.419556,821.973572 856.998718,818.117493 
	C856.643433,814.862427 859.884094,813.501770 863.051331,815.847168 
	C867.313904,819.003723 872.076111,822.105347 874.987793,826.352295 
	C884.472351,840.186462 894.134399,854.033936 902.076782,868.766479 
	C932.836853,925.824036 951.980713,986.736084 960.210083,1051.024780 
	C969.522766,1123.776245 969.754028,1196.572754 960.879578,1269.398682 
	C960.137634,1275.486694 960.527222,1281.706299 959.928711,1287.819336 
	C958.519775,1302.211914 949.058899,1305.754150 936.652771,1304.973755 
	C928.736938,1304.475830 923.210938,1296.802612 925.364502,1289.198975 
	C941.581421,1231.941162 938.670349,1173.624634 934.637146,1115.390503 
	C930.461487,1055.098633 920.249390,995.711304 904.163452,936.976318 
z"/>
<path fill="#FAC60A" opacity="1.000000" stroke="none" 
	d="
M431.953308,1048.996826 
	C433.371094,1061.476929 434.789551,1073.497803 436.208038,1085.518677 
	C436.711273,1085.529297 437.214478,1085.539917 437.717712,1085.550537 
	C438.079102,1085.098022 438.680603,1084.687134 438.767700,1084.186890 
	C446.276062,1041.056763 465.072601,1002.526489 488.526520,966.291992 
	C544.092224,880.447144 615.889160,811.433411 705.441956,761.556396 
	C717.085144,755.071655 730.168823,751.122375 742.717285,746.345520 
	C746.385681,744.948975 750.154968,746.019592 754.100647,749.794067 
	C746.809814,754.402771 740.277710,759.193176 733.182922,762.909119 
	C687.486389,786.842773 645.709412,816.331787 607.304932,850.707031 
	C585.268433,870.431580 567.822266,894.016663 550.966003,918.010315 
	C513.058167,971.968872 481.616455,1029.380859 459.856598,1091.833984 
	C457.227051,1099.380981 454.816620,1107.010742 451.965698,1114.472778 
	C448.982269,1122.281616 444.033875,1124.385620 436.113800,1121.987671 
	C427.823975,1119.477905 421.999817,1114.059814 417.671387,1106.809448 
	C410.587402,1094.943481 407.635895,1081.828613 406.605103,1068.266724 
	C404.824799,1044.842651 407.458191,1021.929749 417.020599,1000.321411 
	C420.271515,992.975281 425.371582,986.419800 429.892120,979.681152 
	C431.141083,977.819275 433.122559,975.951660 435.167633,975.247559 
	C437.703705,974.374268 440.655365,974.708069 443.427551,974.520508 
	C443.575500,976.972656 444.333679,979.573914 443.776764,981.853882 
	C438.407623,1003.834717 432.499481,1025.704712 431.953308,1048.996826 
z"/>
<path fill="#58A4E0" opacity="1.000000" stroke="none" 
	d="
M994.475586,814.596130 
	C1051.174927,858.286560 1092.504272,913.928467 1125.321533,976.477173 
	C1142.463989,1009.150208 1157.301636,1042.744873 1168.735107,1077.898804 
	C1175.011353,1097.196167 1182.580566,1116.101074 1190.232178,1134.912354 
	C1194.734741,1145.981812 1196.989746,1157.143066 1196.160278,1169.007080 
	C1195.863770,1173.247192 1194.987427,1177.119019 1190.194946,1178.276245 
	C1185.487427,1179.412964 1182.002319,1176.833984 1180.598145,1172.916138 
	C1177.018921,1162.929443 1172.112305,1152.842896 1171.365356,1142.533447 
	C1169.677734,1119.240112 1161.037964,1098.643433 1150.771484,1078.379395 
	C1131.500366,1040.341309 1113.240967,1001.735474 1092.537720,964.490356 
	C1055.226074,897.366455 1003.460876,843.461243 938.111145,802.870789 
	C930.483398,798.132996 922.449463,793.999573 914.379517,790.043518 
	C910.105957,787.948425 905.299255,786.968689 900.826172,785.244324 
	C896.974243,783.759521 893.113403,782.186279 889.514099,780.188232 
	C885.699707,778.070557 883.449036,774.669006 885.217651,770.179321 
	C886.933655,765.822998 890.984436,765.074219 894.879883,766.042175 
	C907.256165,769.117432 919.924194,771.562012 931.775146,776.092712 
	C954.857544,784.917419 974.778137,799.338379 994.475586,814.596130 
z"/>
<path fill="#7DC4F4" opacity="1.000000" stroke="none" 
	d="
M812.252991,449.519958 
	C803.458984,493.465454 796.747131,537.261169 797.869019,581.800598 
	C798.236023,596.372314 800.638611,610.917358 802.596008,625.408997 
	C803.160217,629.585938 805.128845,633.670166 806.960510,637.558105 
	C810.445435,644.954895 807.329102,649.299133 802.832336,653.461243 
	C801.657715,654.548523 798.071289,654.493225 796.608704,653.486450 
	C793.972717,651.671753 791.793152,648.952515 789.964783,646.245239 
	C777.125916,627.234253 760.296204,612.933228 739.422302,602.297913 
	C738.126770,605.038269 737.084656,607.241089 736.044006,609.444580 
	C735.059143,611.529968 734.525269,614.076416 732.978882,615.585999 
	C731.022644,617.495544 728.204834,619.665527 725.832153,619.583923 
	C724.369751,619.533630 722.230286,615.629272 721.827698,613.216309 
	C720.995972,608.231201 720.124329,602.893433 721.060547,598.046814 
	C723.072266,587.631897 732.148560,582.557434 741.846924,586.900635 
	C753.031616,591.909302 763.577942,598.346313 774.380920,604.200867 
	C775.789001,604.963928 777.075378,605.951538 778.774170,607.069458 
	C778.870972,605.880554 779.013672,605.247009 778.959717,604.630798 
	C774.472351,553.391418 780.186890,502.811798 789.233887,452.514679 
	C794.434753,423.600433 799.971069,394.724152 806.355347,366.053253 
	C810.420532,347.797211 816.427917,330.001556 825.954285,313.638977 
	C829.290100,307.909454 831.799866,301.628784 835.650085,296.295105 
	C837.997070,293.043732 841.872803,290.266266 845.649475,288.899384 
	C848.138123,287.998718 852.059326,289.331085 854.636292,290.853241 
	C857.598511,292.602997 857.634583,295.919525 856.488525,299.330811 
	C847.692932,325.511810 838.367981,351.541229 830.525452,378.008270 
	C823.580505,401.445984 818.330566,425.385986 812.252991,449.519958 
z"/>
<path fill="#FAE05D" opacity="1.000000" stroke="none" 
	d="
M436.734772,430.030182 
	C452.006317,432.548981 466.958191,434.393311 481.588623,437.671967 
	C522.349426,446.806488 559.451660,464.264465 593.359680,488.578278 
	C604.721130,496.725006 616.046448,504.923187 627.313293,513.199890 
	C629.025085,514.457397 630.328003,516.271362 631.820007,517.827942 
	C631.548462,518.205994 631.276917,518.583984 631.005371,518.961975 
	C629.725647,518.497131 628.365417,518.182556 627.177917,517.545715 
	C584.718384,494.774872 539.910950,478.144592 493.180939,466.682037 
	C464.822815,459.725983 436.142334,454.550018 406.774689,455.463531 
	C377.790436,456.365112 350.566925,463.914978 325.567535,478.795929 
	C321.164825,481.416687 316.944763,484.549683 313.216919,488.058624 
	C303.656586,497.057709 304.081757,503.250732 314.419647,511.254486 
	C319.685333,515.331177 325.120300,519.189331 330.384735,523.267578 
	C331.856476,524.407715 332.993713,525.979614 335.186157,528.313354 
	C325.913727,529.511780 318.399933,527.958984 311.217285,524.882812 
	C301.210693,520.597046 295.244202,512.500183 292.382965,502.353668 
	C291.518372,499.287781 292.548798,495.420227 293.504578,492.151917 
	C299.438049,471.862549 312.931366,457.819611 331.025482,447.797150 
	C348.608643,438.057770 367.608276,432.542816 387.534424,431.139069 
	C403.725250,429.998474 420.019836,430.331055 436.734772,430.030182 
z"/>
<path fill="#79BEEC" opacity="1.000000" stroke="none" 
	d="
M1221.990845,685.533936 
	C1166.627930,672.587158 1111.076416,668.593689 1054.826538,673.724365 
	C1019.050964,676.987488 983.965088,683.602478 949.836243,694.742126 
	C939.810303,698.014587 930.417542,703.227539 920.737671,707.557861 
	C920.436218,707.692627 920.180725,707.928040 919.882141,708.071594 
	C916.619080,709.640808 912.689331,711.226318 910.506042,707.531189 
	C908.264221,703.737122 912.044312,701.547485 914.884949,699.867004 
	C934.528503,688.245850 955.812012,680.659668 977.724915,674.711121 
	C1038.446899,658.227051 1100.137817,654.437805 1162.436523,662.013550 
	C1229.903442,670.217773 1294.028564,689.433899 1353.482788,722.969360 
	C1366.429321,730.271973 1378.969727,738.324463 1389.043457,749.383179 
	C1392.949463,753.671265 1396.301636,759.027344 1398.145874,764.491089 
	C1400.583008,771.710876 1395.953125,777.337219 1388.307861,777.803955 
	C1385.197510,777.993896 1381.858887,777.844849 1378.920044,776.914795 
	C1350.920776,768.053650 1322.259644,762.237427 1293.290283,757.725220 
	C1289.701172,757.166199 1286.217163,755.885315 1282.716675,754.832214 
	C1281.665283,754.515930 1280.722534,753.838318 1279.730103,753.326294 
	C1279.669067,752.843872 1279.607910,752.361450 1279.546875,751.879028 
	C1282.061401,751.429077 1284.614746,750.444153 1287.083618,750.623535 
	C1296.863770,751.334167 1306.780884,751.595703 1316.347168,753.517700 
	C1336.554077,757.577637 1356.562500,762.620239 1376.677612,767.147888 
	C1380.113281,767.921204 1383.673950,768.139771 1387.176758,768.614685 
	C1387.547363,768.057678 1387.917847,767.500610 1388.288452,766.943604 
	C1386.386719,764.228943 1384.998047,760.850891 1382.494629,758.914124 
	C1371.467163,750.383362 1360.746582,741.191895 1348.770264,734.200134 
	C1309.347656,711.185303 1266.691895,696.176575 1221.990845,685.533936 
z"/>
<path fill="#FAC60A" opacity="1.000000" stroke="none" 
	d="
M655.898926,393.152588 
	C691.709290,419.155579 722.388245,449.701935 746.676147,486.379608 
	C757.288086,502.404846 766.262573,519.290161 770.373230,538.350342 
	C772.265381,547.123901 772.827332,555.928101 769.745239,564.438965 
	C768.812805,567.013855 766.235779,569.892517 763.747498,570.790100 
	C760.170837,572.080383 757.992065,568.740967 756.974609,565.681213 
	C755.896423,562.438782 755.461060,558.969971 754.884583,555.576233 
	C754.055725,550.697266 754.269043,545.420410 752.439941,540.969910 
	C743.945923,520.303101 734.513428,500.015900 720.024841,482.731537 
	C714.606750,476.267975 707.887207,470.893921 701.749146,465.035583 
	C686.941467,450.902893 673.033386,435.641602 657.096069,422.923676 
	C634.876709,405.192627 611.840942,388.169739 584.666565,378.283539 
	C577.811401,375.789581 570.616333,374.198517 563.520325,372.420654 
	C561.844360,372.000793 559.771240,372.058746 558.165405,372.658752 
	C551.382019,375.193329 550.571533,378.397736 554.258667,384.774170 
	C555.224670,386.444794 555.014954,388.795319 555.345154,390.833588 
	C553.367737,390.443085 551.044678,390.585999 549.473694,389.568146 
	C543.228516,385.521942 538.015015,380.389923 535.345581,373.226685 
	C533.007568,366.952667 534.930603,363.638153 540.410767,360.089325 
	C555.817810,350.112152 571.862244,353.339966 587.690308,357.667419 
	C612.782043,364.527588 634.625366,377.990051 655.898926,393.152588 
z"/>
<path fill="#59A6E2" opacity="1.000000" stroke="none" 
	d="
M652.924805,688.147583 
	C679.240356,689.221985 703.278564,696.215393 725.185913,710.049316 
	C728.393433,712.074829 731.269104,714.704468 734.031311,717.334961 
	C736.945312,720.109680 738.199036,723.466492 735.399658,727.108521 
	C732.681213,730.645142 728.768433,731.285828 724.698425,729.083740 
	C718.735718,725.857544 713.015198,722.017578 706.757324,719.532166 
	C680.435425,709.077942 653.496643,710.140137 626.729919,717.187561 
	C589.703125,726.936279 557.947205,745.555115 533.391968,775.470276 
	C531.708069,777.521729 530.302673,779.802246 528.773499,781.980286 
	C526.707397,784.923035 524.103577,788.459229 520.451050,786.809753 
	C517.565735,785.506653 514.287964,782.014526 513.814636,779.071533 
	C512.856445,773.113464 512.912720,766.738464 513.921631,760.766968 
	C516.603821,744.891846 525.938538,732.812439 537.829895,722.605408 
	C557.177368,705.998169 580.154541,697.132629 604.753784,691.929504 
	C620.474670,688.604248 636.383667,687.403381 652.924805,688.147583 
z"/>
<path fill="#EFD55A" opacity="1.000000" stroke="none" 
	d="
M1311.468384,862.466431 
	C1321.484863,878.616699 1331.301636,894.469971 1341.072266,910.351624 
	C1341.937378,911.757812 1342.655396,913.298035 1343.177002,914.864319 
	C1344.880493,919.979553 1343.002686,925.067749 1338.691528,927.361206 
	C1334.376099,929.656921 1329.035278,928.432007 1325.769043,924.222107 
	C1324.554565,922.656738 1323.642700,920.847412 1322.665771,919.108337 
	C1309.004150,894.790039 1294.304810,871.004211 1275.067993,850.779236 
	C1248.822876,823.185608 1219.466187,799.025635 1186.932739,779.052368 
	C1167.054810,766.848694 1144.702759,762.279846 1121.802124,759.922913 
	C1117.668945,759.497498 1113.428345,759.170837 1109.515259,757.925354 
	C1107.370972,757.242920 1104.364624,754.750793 1104.345703,753.045837 
	C1104.321777,750.888184 1106.546387,747.336731 1108.492676,746.772522 
	C1115.451904,744.755432 1122.664307,742.837769 1129.851929,742.527161 
	C1151.618530,741.586548 1172.082031,747.467102 1191.663574,756.468750 
	C1230.914551,774.512512 1262.552856,802.248108 1290.160767,834.911011 
	C1297.571899,843.679077 1304.244507,853.071289 1311.468384,862.466431 
z"/>
<path fill="#7DC5F4" opacity="1.000000" stroke="none" 
	d="
M1059.116333,282.356812 
	C1053.263428,283.560059 1047.711548,284.498962 1042.175903,285.525635 
	C1007.751038,291.910156 977.307678,307.316711 949.028625,327.289093 
	C914.640015,351.576447 885.251770,380.751984 863.528992,417.142700 
	C853.985779,433.129791 846.991943,450.150848 842.952026,468.368439 
	C842.272217,471.434113 841.669006,474.832123 839.899902,477.249084 
	C838.245728,479.508881 834.920471,482.172424 832.639526,481.915588 
	C830.054688,481.624603 826.693909,478.720184 825.694031,476.161346 
	C824.313477,472.628296 824.304749,468.313507 824.620178,464.407196 
	C825.803833,449.749451 830.771912,436.125946 837.220703,423.075378 
	C855.870239,385.333984 883.152771,354.611664 915.594055,328.305695 
	C946.289551,303.415436 979.891418,283.614075 1018.487427,273.720795 
	C1029.818604,270.816254 1041.720337,269.923737 1053.429077,268.871338 
	C1056.019165,268.638550 1059.720703,271.016632 1061.437866,273.299927 
	C1063.573242,276.139130 1062.383301,279.684509 1059.116333,282.356812 
z"/>
<path fill="#59A6E2" opacity="1.000000" stroke="none" 
	d="
M675.776489,902.845581 
	C652.914185,938.976440 632.107056,975.808777 617.856506,1015.883423 
	C613.195251,1028.991699 610.618530,1042.841553 607.097168,1056.354492 
	C606.677734,1057.964355 606.491699,1059.658569 605.889526,1061.192749 
	C604.149292,1065.626953 600.983093,1068.369019 596.039368,1068.232056 
	C591.120178,1068.095947 587.635376,1065.399658 586.717407,1060.685791 
	C585.970642,1056.851807 585.960632,1052.728516 586.424683,1048.828735 
	C588.731262,1029.445801 595.397522,1011.277222 602.897400,993.453613 
	C626.984497,936.209839 658.715942,883.628113 699.895935,836.993958 
	C707.477844,828.407898 716.117920,820.737427 724.489990,812.879211 
	C727.123718,810.407166 730.318054,808.384460 733.558289,806.758728 
	C735.709900,805.679138 738.398315,805.669678 740.846436,805.181152 
	C741.033264,808.232544 742.271362,811.752563 741.167480,814.228516 
	C739.385254,818.225952 736.277588,821.722961 733.353943,825.106567 
	C712.288269,849.487000 693.243286,875.354736 675.776489,902.845581 
z"/>
<path fill="#F7DD5C" opacity="1.000000" stroke="none" 
	d="
M986.911743,889.010864 
	C1015.993469,927.102905 1033.576782,969.504150 1038.592041,1016.891907 
	C1039.552734,1025.969360 1039.510132,1035.175903 1039.498657,1044.322388 
	C1039.493774,1048.261230 1038.770508,1052.306641 1037.692993,1056.110962 
	C1036.141113,1061.590088 1031.585815,1064.800781 1026.687256,1064.635498 
	C1021.724792,1064.467896 1017.328247,1061.044189 1016.328125,1055.395874 
	C1015.318542,1049.694214 1015.003845,1043.831665 1014.828613,1038.026245 
	C1013.874695,1006.415833 1007.836487,975.925842 995.773987,946.602356 
	C979.964600,908.170044 955.622498,875.818726 925.878906,847.239929 
	C920.244812,841.826477 914.264099,836.766113 908.774475,831.215454 
	C907.344299,829.769409 907.160828,827.090515 906.404785,824.977844 
	C908.677856,824.794434 911.537537,823.634399 913.126892,824.589111 
	C922.221313,830.051819 931.330688,835.589722 939.842957,841.900574 
	C957.739685,855.168823 973.062805,871.132751 986.911743,889.010864 
z"/>
<path fill="#58A6E2" opacity="1.000000" stroke="none" 
	d="
M876.882690,530.000610 
	C859.376526,557.887146 847.049622,587.617798 838.348328,618.931335 
	C836.267151,626.420959 836.491577,633.730957 839.065369,641.018127 
	C839.287170,641.646118 839.512878,642.276062 839.676880,642.920410 
	C841.070007,648.394165 839.125610,653.172791 834.689880,655.212341 
	C830.261292,657.248596 824.809937,655.959900 822.162231,651.064392 
	C819.433533,646.019165 817.159729,640.487915 815.972168,634.896301 
	C812.962585,620.725830 815.008240,606.623779 818.848450,592.909363 
	C831.061768,549.292175 854.001526,512.235901 888.097351,482.324707 
	C899.364014,472.440826 912.025024,464.659790 927.227844,462.523682 
	C931.722656,461.892120 936.631775,462.196808 940.996521,463.380127 
	C943.770386,464.132080 946.929932,466.830688 948.105164,469.464569 
	C951.344177,476.723541 948.296204,480.805511 940.379089,480.298126 
	C931.570374,479.733612 924.062012,482.831451 916.999512,487.570312 
	C900.536194,498.616913 887.655823,513.066650 876.882690,530.000610 
z"/>
<path fill="#7DC4F4" opacity="1.000000" stroke="none" 
	d="
M402.127777,791.139465 
	C372.171814,824.099915 348.841797,860.536438 336.667999,903.428772 
	C332.823822,916.973145 330.796814,930.776428 332.559753,944.901672 
	C333.658783,953.707275 336.575348,961.622131 343.242035,967.966492 
	C347.400421,971.923767 347.506805,977.392029 344.140015,980.909973 
	C340.746033,984.456177 335.399200,984.523438 331.089813,980.774963 
	C322.601990,973.391785 317.697571,963.855652 315.346405,953.013367 
	C311.007080,933.002502 314.394806,913.550537 320.470673,894.483093 
	C332.596161,856.430420 354.020538,823.659729 379.098206,793.077637 
	C398.280792,769.684387 420.602661,749.842224 447.211945,735.227356 
	C452.622803,732.255554 458.892487,730.766052 464.884949,728.994812 
	C466.294708,728.578064 468.186157,729.791138 469.855988,730.254456 
	C469.176788,732.013855 468.958313,734.248840 467.728699,735.440186 
	C464.521088,738.547974 461.068085,741.492371 457.363739,743.982483 
	C437.229828,757.516663 418.879761,773.113464 402.127777,791.139465 
z"/>
<path fill="#FAC60A" opacity="1.000000" stroke="none" 
	d="
M949.755859,745.015076 
	C947.964355,739.558167 950.867493,737.117371 955.119141,735.840759 
	C964.432312,733.044312 974.023682,732.915833 983.274536,735.354370 
	C1032.540039,748.340576 1075.505371,771.484985 1106.210938,813.611877 
	C1112.848877,822.718750 1119.144043,832.175232 1124.504639,842.062927 
	C1126.562988,845.859497 1125.995239,851.337402 1125.698853,855.990234 
	C1125.614136,857.322021 1122.218750,859.567932 1120.464600,859.456299 
	C1115.310425,859.128418 1111.267944,856.517944 1108.227173,851.950256 
	C1102.426880,843.237366 1096.162964,834.832947 1090.085327,826.304810 
	C1072.312866,801.366638 1048.392578,784.034424 1021.124756,770.983032 
	C1010.325684,765.814209 999.448730,760.653259 988.200195,756.625732 
	C978.724243,753.232971 968.631409,751.588684 958.870911,748.950745 
	C955.793396,748.118958 952.907715,746.577271 949.755859,745.015076 
z"/>
<path fill="#FAC60A" opacity="1.000000" stroke="none" 
	d="
M988.789307,602.917969 
	C1014.366516,596.025879 1039.880005,591.320129 1066.076172,592.005615 
	C1073.509766,592.200134 1080.960938,593.562683 1088.295532,594.959595 
	C1092.271118,595.716736 1094.804688,598.742676 1093.786987,603.097229 
	C1092.778809,607.410583 1089.386108,608.928772 1085.295654,608.032959 
	C1062.333740,603.004089 1039.865845,606.541016 1017.588684,612.048889 
	C988.674561,619.197815 961.062622,629.759338 935.246765,644.773132 
	C922.647583,652.100525 910.902954,660.472778 901.335266,671.658813 
	C899.307678,674.029358 896.691528,675.948120 894.145813,677.798889 
	C893.098694,678.560059 890.933411,679.306763 890.313660,678.797729 
	C889.210449,677.891602 888.265381,675.983276 888.358276,674.566528 
	C888.841614,667.196716 889.783569,659.704834 895.142944,654.124390 
	C901.113159,647.908020 907.154724,641.542419 914.083862,636.505371 
	C935.634460,620.839478 960.195557,611.437866 985.520142,603.855164 
	C986.477173,603.568604 987.436768,603.290405 988.789307,602.917969 
z"/>
<path fill="#F3D95B" opacity="1.000000" stroke="none" 
	d="
M679.382690,617.569641 
	C667.450012,606.991699 653.333313,601.056885 639.002686,595.799194 
	C617.939575,588.071411 595.866211,584.660889 573.683105,582.074219 
	C558.492371,580.302856 543.296265,578.245056 528.043701,577.463074 
	C519.205933,577.009888 510.250275,578.815491 501.351410,579.644714 
	C500.198425,579.752075 499.024048,580.417480 497.936493,580.267334 
	C495.994019,579.999146 494.110199,579.306274 492.201843,578.790955 
	C493.470978,577.083618 494.461517,574.240784 496.053650,573.850159 
	C507.798920,570.968933 519.564880,567.236389 531.515381,566.351685 
	C548.538513,565.091309 565.777100,565.198486 582.826599,566.268188 
	C600.207336,567.358582 616.548401,573.530334 632.291809,580.813599 
	C643.723755,586.102295 655.787659,590.719604 665.906616,597.960571 
	C676.445862,605.502197 687.404114,613.466125 694.394836,626.157532 
	C687.513000,625.683411 684.127930,620.764343 679.382690,617.569641 
z"/>
<path fill="#FCC80A" opacity="1.000000" stroke="none" 
	d="
M964.691711,1348.479492 
	C958.369263,1360.484619 944.239197,1359.999023 935.030518,1355.970947 
	C928.049133,1352.917236 922.656189,1347.614380 919.697937,1340.282227 
	C917.085388,1333.807007 917.221619,1327.452148 921.594299,1321.861328 
	C926.273499,1315.878418 932.988770,1313.421997 940.251221,1314.644165 
	C949.182129,1316.147095 956.823120,1320.529663 962.088257,1328.276123 
	C966.269409,1334.427856 967.608215,1341.008545 964.691711,1348.479492 
z"/>
<path fill="#59A6E2" opacity="1.000000" stroke="none" 
	d="
M495.022400,831.248657 
	C485.155334,825.001709 481.964996,815.114563 486.528748,805.834290 
	C490.722870,797.305664 500.949738,793.144531 509.706116,796.403870 
	C519.545959,800.066528 524.538208,811.122864 520.756897,820.878052 
	C516.831238,831.005554 506.222534,835.409912 495.022400,831.248657 
z"/>
<path fill="#FCC80A" opacity="1.000000" stroke="none" 
	d="
M1133.887329,901.279541 
	C1124.421143,903.260742 1116.756348,899.492676 1113.554565,891.602905 
	C1110.516724,884.117004 1113.366577,875.431946 1120.252075,871.192078 
	C1127.035767,867.014893 1136.210083,868.479492 1141.510620,874.585632 
	C1149.057617,883.279785 1145.723267,895.518433 1133.887329,901.279541 
z"/>
<path fill="#58A5E1" opacity="1.000000" stroke="none" 
	d="
M462.398071,1158.464600 
	C468.718811,1169.247803 470.333435,1180.927246 471.061737,1192.692017 
	C471.404175,1198.223511 467.186249,1202.428589 462.212799,1203.119995 
	C456.904877,1203.857666 451.317963,1200.908569 450.793671,1195.160400 
	C449.793213,1184.191528 449.477631,1173.042847 450.278534,1162.071167 
	C450.753174,1155.569336 456.586121,1154.182129 462.398071,1158.464600 
z"/>
<path fill="#58A5E1" opacity="1.000000" stroke="none" 
	d="
M457.421387,1231.039795 
	C457.729614,1227.785522 457.683868,1224.883911 458.427612,1222.200928 
	C460.076691,1216.251953 466.658081,1214.542236 470.935150,1219.020142 
	C472.825348,1220.999023 474.482178,1223.591187 475.230621,1226.196289 
	C477.383423,1233.689575 479.406952,1241.263916 480.744049,1248.934937 
	C481.974487,1255.993774 478.332764,1261.312622 472.619995,1262.333252 
	C466.749115,1263.382324 461.694824,1259.863037 460.266846,1252.738525 
	C458.865631,1245.747192 458.337067,1238.581055 457.421387,1231.039795 
z"/>
<path fill="#58A4E0" opacity="1.000000" stroke="none" 
	d="
M503.557465,1190.930420 
	C508.099854,1191.683228 512.502075,1191.805786 516.225159,1193.458496 
	C519.778687,1195.036011 521.476501,1199.212158 519.875244,1202.814087 
	C518.611572,1205.656738 515.646423,1209.441772 513.102783,1209.716797 
	C503.107635,1210.797119 492.971344,1211.025757 482.906158,1210.786133 
	C478.787903,1210.687988 475.488892,1207.561768 474.987305,1203.062622 
	C474.466187,1198.388428 477.825806,1195.921509 481.660431,1195.002441 
	C488.729950,1193.308105 495.958313,1192.276611 503.557465,1190.930420 
z"/>
<path fill="#58A4E0" opacity="1.000000" stroke="none" 
	d="
M446.319885,1208.699585 
	C450.849762,1216.313599 447.339355,1223.293457 438.980927,1222.943970 
	C428.863373,1222.520996 418.782715,1221.163818 408.695923,1220.116333 
	C407.237488,1219.964722 405.435516,1219.690186 404.491058,1218.761841 
	C402.735107,1217.035889 400.290558,1214.733643 400.376587,1212.769653 
	C400.462646,1210.805664 402.981567,1208.446411 405.012909,1207.216797 
	C406.869934,1206.092896 409.494568,1205.942017 411.792206,1205.893066 
	C420.773285,1205.701660 429.764801,1205.522339 438.738922,1205.790771 
	C441.202179,1205.864380 443.618347,1207.511841 446.319885,1208.699585 
z"/>
<path fill="#7DC4F4" opacity="1.000000" stroke="none" 
	d="
M867.078552,250.782196 
	C874.996216,253.781555 878.987915,259.772736 877.849731,266.443115 
	C876.660339,273.413635 869.276917,279.555481 861.739685,279.844086 
	C854.804138,280.109680 848.831970,275.604797 847.416931,269.047058 
	C845.178101,258.671478 857.281799,247.989731 867.078552,250.782196 
z"/>
<path fill="#58A6E2" opacity="1.000000" stroke="none" 
	d="
M983.491943,439.452942 
	C988.433716,445.712708 988.820312,452.003357 984.892944,458.109802 
	C980.704773,464.621643 972.890625,466.265472 966.691467,461.938751 
	C960.127258,457.357300 958.628601,449.434937 963.144470,443.188324 
	C968.145813,436.270264 976.110535,434.689117 983.491943,439.452942 
z"/>
<path fill="#F3D95B" opacity="1.000000" stroke="none" 
	d="
M1415.126099,642.881592 
	C1418.356445,645.096313 1420.141113,648.252563 1418.232056,651.121155 
	C1416.659302,653.484619 1413.295776,655.812927 1410.568237,656.013245 
	C1404.698975,656.444458 1398.681763,655.803894 1392.827881,654.920837 
	C1391.091675,654.658997 1388.374756,652.033997 1388.469238,650.653381 
	C1388.599365,648.751953 1390.738892,645.719360 1392.425659,645.412231 
	C1399.802979,644.069275 1407.327759,643.535767 1415.126099,642.881592 
z"/>
<path fill="#EFD55A" opacity="1.000000" stroke="none" 
	d="
M1388.089233,684.433655 
	C1387.880737,687.051941 1388.149658,689.621765 1387.076294,691.365051 
	C1386.294189,692.635071 1383.510132,693.661804 1382.038452,693.259888 
	C1380.313477,692.788635 1378.026733,690.826538 1377.747925,689.207275 
	C1376.346069,681.068665 1375.272339,672.848694 1374.675903,664.614441 
	C1374.536499,662.689880 1376.700684,660.598450 1377.805054,658.583801 
	C1379.415161,660.008972 1381.926392,661.152039 1382.476685,662.909119 
	C1384.648926,669.845093 1386.206055,676.973755 1388.089233,684.433655 
z"/>
<path fill="#EBD259" opacity="1.000000" stroke="none" 
	d="
M1383.449219,644.333984 
	C1381.761353,645.898621 1380.012451,648.228760 1378.667358,648.015320 
	C1377.113037,647.768494 1374.952271,645.409180 1374.729980,643.743408 
	C1373.810913,636.862549 1373.247192,629.897339 1373.239136,622.962341 
	C1373.237427,621.543030 1376.332153,618.853943 1377.749634,619.010620 
	C1379.639526,619.219604 1382.627930,621.497803 1382.801270,623.135132 
	C1383.531128,630.031555 1383.389404,637.020203 1383.449219,644.333984 
z"/>
<path fill="#EBD259" opacity="1.000000" stroke="none" 
	d="
M1345.682373,658.172607 
	C1343.184326,651.100769 1346.507812,647.009705 1353.362671,648.122192 
	C1356.943359,648.703308 1360.633789,648.870178 1364.083984,649.877319 
	C1365.678101,650.342590 1367.480225,652.174805 1367.948975,653.754822 
	C1368.321167,655.009338 1367.217041,657.294556 1366.056396,658.300903 
	C1362.466553,661.413818 1349.774048,661.305359 1345.682373,658.172607 
z"/>
</svg>